<?xml version="1.0" standalone="no"?>
        <!DOCTYPE svg PUBLIC "-//W3C//DTD SVG 1.1//EN" 
        "http://www.w3.org/Graphics/SVG/1.1/DTD/svg11.dtd"> <svg style="color: rgb(6, 255, 218);" xmlns="http://www.w3.org/2000/svg" xmlns:xlink="http://www.w3.org/1999/xlink" width="40" zoomAndPan="magnify" viewBox="0 0 30 30.000001" height="40" preserveAspectRatio="xMidYMid meet" version="1.0"><defs><clipPath id="id1"><path d="M 6.085938 3.882812 L 23.503906 3.882812 L 23.503906 25.65625 L 6.085938 25.65625 Z M 6.085938 3.882812 " clip-rule="nonzero" fill="#06ffda"></path></clipPath></defs><g clip-path="url(#id1)"><path fill="#06ffda" d="M 23.363281 24.847656 L 15.269531 13.421875 L 22.847656 4.730469 C 22.972656 4.582031 23.003906 4.375 22.925781 4.199219 C 22.847656 4.019531 22.675781 3.90625 22.488281 3.90625 L 18.683594 3.90625 C 18.546875 3.90625 18.417969 3.964844 18.324219 4.066406 L 10.429688 12.9375 L 10.429688 4.398438 C 10.429688 4.128906 10.210938 3.90625 9.945312 3.90625 L 6.566406 3.90625 C 6.300781 3.90625 6.085938 4.128906 6.085938 4.398438 L 6.085938 25.140625 C 6.085938 25.410156 6.300781 25.632812 6.566406 25.632812 L 9.945312 25.632812 C 10.210938 25.632812 10.429688 25.410156 10.429688 25.140625 L 10.429688 18.976562 L 12.644531 16.433594 L 19.007812 25.429688 C 19.097656 25.558594 19.246094 25.632812 19.398438 25.632812 L 22.972656 25.632812 C 23.15625 25.632812 23.320312 25.527344 23.402344 25.363281 C 23.484375 25.199219 23.472656 25 23.363281 24.847656 Z M 23.363281 24.847656 " fill-opacity="1" fill-rule="nonzero"></path></g></svg> 